<?xml version="1.0" encoding="UTF-8" standalone="no"?>
<!-- Created with Inkscape (http://www.inkscape.org/) -->
<svg
   xmlns:dc="http://purl.org/dc/elements/1.1/"
   xmlns:cc="http://web.resource.org/cc/"
   xmlns:rdf="http://www.w3.org/1999/02/22-rdf-syntax-ns#"
   xmlns:svg="http://www.w3.org/2000/svg"
   xmlns="http://www.w3.org/2000/svg"
   xmlns:sodipodi="http://inkscape.sourceforge.net/DTD/sodipodi-0.dtd"
   xmlns:inkscape="http://www.inkscape.org/namespaces/inkscape"
   width="16px"
   height="16px"
   id="svg2"
   sodipodi:version="0.32"
   inkscape:version="0.43"
   sodipodi:docname="1to4_switch-id-88.svg"
   sodipodi:docbase="/home/sak/wip/nmedit/icon_sets/mixer_set">
  <defs
     id="defs4" />
  <sodipodi:namedview
     id="base"
     pagecolor="#ffffff"
     bordercolor="#666666"
     borderopacity="1.0"
     inkscape:pageopacity="0.0"
     inkscape:pageshadow="2"
     inkscape:zoom="26.114722"
     inkscape:cx="7.9968512"
     inkscape:cy="8.0031486"
     inkscape:current-layer="layer1"
     showgrid="true"
     inkscape:grid-bbox="true"
     inkscape:document-units="px"
     inkscape:grid-points="true"
     gridspacingx="0.5px"
     gridspacingy="0.5px"
     gridtolerance="0.5px"
     inkscape:guide-points="true"
     guidetolerance="0.5px"
     inkscape:window-width="801"
     inkscape:window-height="579"
     inkscape:window-x="387"
     inkscape:window-y="135"
     inkscape:showpageshadow="false" />
  <metadata
     id="metadata7">
    <rdf:RDF>
      <cc:Work
         rdf:about="">
        <dc:format>image/svg+xml</dc:format>
        <dc:type
           rdf:resource="http://purl.org/dc/dcmitype/StillImage" />
      </cc:Work>
    </rdf:RDF>
  </metadata>
  <g
     id="layer1"
     inkscape:label="Layer 1"
     inkscape:groupmode="layer">
    <path
       sodipodi:type="arc"
       style="fill:#6cb5c0;fill-opacity:1;fill-rule:evenodd;stroke:#000000;stroke-width:1.09321761;stroke-miterlimit:4;stroke-dasharray:none;stroke-dashoffset:0;stroke-opacity:1"
       id="path4094"
       sodipodi:cx="8.2215347"
       sodipodi:cy="8.22896"
       sodipodi:rx="7.2304454"
       sodipodi:ry="7.2304454"
       d="M 15.45198 8.22896 A 7.2304454 7.2304454 0 1 1  0.99108934,8.22896 A 7.2304454 7.2304454 0 1 1  15.45198 8.22896 z"
       transform="matrix(1.029072,0,0,1.029072,-0.4637,-0.471341)" />
    <path
       style="fill:none;fill-opacity:0.75;fill-rule:evenodd;stroke:#000000;stroke-width:1.00000107;stroke-linecap:round;stroke-linejoin:round;stroke-miterlimit:4;stroke-dasharray:none;stroke-opacity:1"
       d="M 9.6023145,6.5000064 C 5.834793,6.5000064 6.8347925,6.5000069 6.8347925,6.5000069 L 3.8347926,8.0000069"
       id="path2261"
       sodipodi:nodetypes="ccc" />
    <path
       style="fill:none;fill-opacity:0.75;fill-rule:evenodd;stroke:#000000;stroke-width:1.00000095;stroke-linecap:round;stroke-linejoin:round;stroke-miterlimit:4;stroke-dasharray:none;stroke-opacity:1"
       d="M 13.504388,3.5000072 C 8.8347918,3.5000072 8.8347918,3.5000072 8.8347918,3.5000072"
       id="path2240" />
    <path
       style="fill:none;fill-opacity:0.75;fill-rule:evenodd;stroke:#000000;stroke-width:1.00000107;stroke-linecap:round;stroke-linejoin:round;stroke-miterlimit:4;stroke-dasharray:none;stroke-opacity:1"
       d="M 14.834792,6.5000074 C 11.067271,6.5000074 11.067271,6.5000074 11.067271,6.5000074"
       id="path2249" />
    <path
       style="fill:none;fill-opacity:0.75;fill-rule:evenodd;stroke:#000000;stroke-width:1.00000107;stroke-linecap:round;stroke-linejoin:round;stroke-miterlimit:4;stroke-dasharray:none;stroke-opacity:1"
       d="M 14.834788,9.5000064 C 11.067267,9.5000064 11.067267,9.5000064 11.067267,9.5000064"
       id="path2253" />
    <path
       style="fill:none;fill-opacity:0.75;fill-rule:evenodd;stroke:#000000;stroke-width:1.00000095;stroke-linecap:round;stroke-linejoin:round;stroke-miterlimit:4;stroke-dasharray:none;stroke-opacity:1"
       d="M 13.334792,12.500009 C 8.6651956,12.500009 8.6651956,12.500009 8.6651956,12.500009"
       id="path2257" />
    <path
       sodipodi:type="arc"
       style="fill:#000000;fill-opacity:1;fill-rule:nonzero;stroke:none;stroke-width:0.44117647;stroke-linecap:round;stroke-linejoin:round;stroke-miterlimit:4;stroke-dasharray:none;stroke-dashoffset:0;stroke-opacity:1"
       id="path2259"
       sodipodi:cx="7.25"
       sodipodi:cy="3.25"
       sodipodi:rx="0.25"
       sodipodi:ry="0.25"
       d="M 7.5 3.25 A 0.25 0.25 0 1 1  7,3.25 A 0.25 0.25 0 1 1  7.5 3.25 z"
       transform="matrix(3.536068,-3.536068,3.536068,3.536068,-33.29391,22.14427)" />
    <path
       sodipodi:type="arc"
       style="fill:#ffffff;fill-opacity:1;fill-rule:nonzero;stroke:none;stroke-width:0.44117647;stroke-linecap:round;stroke-linejoin:round;stroke-miterlimit:4;stroke-dasharray:none;stroke-dashoffset:0;stroke-opacity:1"
       id="path1348"
       sodipodi:cx="7.25"
       sodipodi:cy="3.25"
       sodipodi:rx="0.25"
       sodipodi:ry="0.25"
       d="M 7.5 3.25 A 0.25 0.25 0 1 1  7,3.25 A 0.25 0.25 0 1 1  7.5 3.25 z"
       transform="matrix(3.536068,-3.536068,3.536068,3.536068,-28.87871,17.64427)" />
    <path
       sodipodi:type="arc"
       style="fill:#ffffff;fill-opacity:1;fill-rule:nonzero;stroke:none;stroke-width:0.44117647;stroke-linecap:round;stroke-linejoin:round;stroke-miterlimit:4;stroke-dasharray:none;stroke-dashoffset:0;stroke-opacity:1"
       id="path1383"
       sodipodi:cx="7.25"
       sodipodi:cy="3.25"
       sodipodi:rx="0.25"
       sodipodi:ry="0.25"
       d="M 7.5 3.25 A 0.25 0.25 0 1 1  7,3.25 A 0.25 0.25 0 1 1  7.5 3.25 z"
       transform="matrix(3.536068,-3.536068,3.536068,3.536068,-26.79391,20.64427)" />
    <path
       sodipodi:type="arc"
       style="fill:#ffffff;fill-opacity:1;fill-rule:nonzero;stroke:none;stroke-width:0.44117647;stroke-linecap:round;stroke-linejoin:round;stroke-miterlimit:4;stroke-dasharray:none;stroke-dashoffset:0;stroke-opacity:1"
       id="path2251"
       sodipodi:cx="7.25"
       sodipodi:cy="3.25"
       sodipodi:rx="0.25"
       sodipodi:ry="0.25"
       d="M 7.5 3.25 A 0.25 0.25 0 1 1  7,3.25 A 0.25 0.25 0 1 1  7.5 3.25 z"
       transform="matrix(3.536068,-3.536068,3.536068,3.536068,-26.79391,23.64427)" />
    <path
       sodipodi:type="arc"
       style="fill:#ffffff;fill-opacity:1;fill-rule:nonzero;stroke:none;stroke-width:0.44117647;stroke-linecap:round;stroke-linejoin:round;stroke-miterlimit:4;stroke-dasharray:none;stroke-dashoffset:0;stroke-opacity:1"
       id="path2255"
       sodipodi:cx="7.25"
       sodipodi:cy="3.25"
       sodipodi:rx="0.25"
       sodipodi:ry="0.25"
       d="M 7.5 3.25 A 0.25 0.25 0 1 1  7,3.25 A 0.25 0.25 0 1 1  7.5 3.25 z"
       transform="matrix(3.536068,-3.536068,3.536068,3.536068,-28.87871,26.64427)" />
  </g>
</svg>
