<?xml version="1.0" encoding="UTF-8" standalone="no"?>
<!-- Created with Inkscape (http://www.inkscape.org/) -->
<svg
   xmlns:dc="http://purl.org/dc/elements/1.1/"
   xmlns:cc="http://web.resource.org/cc/"
   xmlns:rdf="http://www.w3.org/1999/02/22-rdf-syntax-ns#"
   xmlns:svg="http://www.w3.org/2000/svg"
   xmlns="http://www.w3.org/2000/svg"
   xmlns:sodipodi="http://inkscape.sourceforge.net/DTD/sodipodi-0.dtd"
   xmlns:inkscape="http://www.inkscape.org/namespaces/inkscape"
   width="16px"
   height="16px"
   id="svg2"
   sodipodi:version="0.32"
   inkscape:version="0.43"
   sodipodi:docname="8_inputs_mixer-id-40.svg"
   sodipodi:docbase="/home/sak/wip/nmedit/icon_sets/mixer_set">
  <defs
     id="defs4">
    <marker
       inkscape:stockid="Arrow2Mend"
       orient="auto"
       refY="0.0"
       refX="0.0"
       id="Arrow2Mend"
       style="overflow:visible;">
      <path
         id="path4152"
         style="font-size:12.0;fill-rule:evenodd;stroke-width:0.62500000;stroke-linejoin:round;"
         d="M 8.7185878,4.0337352 L -2.2072895,0.016013256 L 8.7185884,-4.0017078 C 6.9730900,-1.6296469 6.9831476,1.6157441 8.7185878,4.0337352 z "
         transform="scale(0.6) rotate(180) translate(-5,0)" />
    </marker>
  </defs>
  <sodipodi:namedview
     id="base"
     pagecolor="#ffffff"
     bordercolor="#666666"
     borderopacity="1.0"
     inkscape:pageopacity="0.0"
     inkscape:pageshadow="2"
     inkscape:zoom="22.197802"
     inkscape:cx="8"
     inkscape:cy="8"
     inkscape:current-layer="layer1"
     showgrid="true"
     inkscape:grid-bbox="true"
     inkscape:document-units="px"
     inkscape:grid-points="true"
     gridspacingx="0.5px"
     gridspacingy="0.5px"
     gridtolerance="0.5px"
     inkscape:guide-points="true"
     guidetolerance="0.5px"
     inkscape:window-width="801"
     inkscape:window-height="579"
     inkscape:window-x="340"
     inkscape:window-y="150"
     inkscape:showpageshadow="false" />
  <metadata
     id="metadata7">
    <rdf:RDF>
      <cc:Work
         rdf:about="">
        <dc:format>image/svg+xml</dc:format>
        <dc:type
           rdf:resource="http://purl.org/dc/dcmitype/StillImage" />
      </cc:Work>
    </rdf:RDF>
  </metadata>
  <g
     id="layer1"
     inkscape:label="Layer 1"
     inkscape:groupmode="layer">
    <path
       sodipodi:type="arc"
       style="fill:#6cb5c0;fill-opacity:1;fill-rule:evenodd;stroke:#000000;stroke-width:1.09321761;stroke-miterlimit:4;stroke-dasharray:none;stroke-dashoffset:0;stroke-opacity:1"
       id="path4094"
       sodipodi:cx="8.2215347"
       sodipodi:cy="8.22896"
       sodipodi:rx="7.2304454"
       sodipodi:ry="7.2304454"
       d="M 15.45198 8.22896 A 7.2304454 7.2304454 0 1 1  0.99108934,8.22896 A 7.2304454 7.2304454 0 1 1  15.45198 8.22896 z"
       transform="matrix(1.029072,0,0,1.029072,-0.457402,-0.465044)" />
    <path
       sodipodi:type="arc"
       style="fill:#ffffff;fill-opacity:1;fill-rule:nonzero;stroke:none;stroke-width:0.44117647;stroke-linecap:round;stroke-linejoin:round;stroke-miterlimit:4;stroke-dasharray:none;stroke-dashoffset:0;stroke-opacity:1"
       id="path1383"
       sodipodi:cx="7.25"
       sodipodi:cy="3.25"
       sodipodi:rx="0.25"
       sodipodi:ry="0.25"
       d="M 7.5 3.25 A 0.25 0.25 0 1 1  7,3.25 A 0.25 0.25 0 1 1  7.5 3.25 z"
       transform="matrix(-2.828854,-2.828854,-2.828854,2.828854,39.70297,14.31542)" />
    <path
       sodipodi:type="arc"
       style="fill:#ffffff;fill-opacity:1;fill-rule:nonzero;stroke:none;stroke-width:0.44117647;stroke-linecap:round;stroke-linejoin:round;stroke-miterlimit:4;stroke-dasharray:none;stroke-dashoffset:0;stroke-opacity:1"
       id="path2307"
       sodipodi:cx="7.25"
       sodipodi:cy="3.25"
       sodipodi:rx="0.25"
       sodipodi:ry="0.25"
       d="M 7.5 3.25 A 0.25 0.25 0 1 1  7,3.25 A 0.25 0.25 0 1 1  7.5 3.25 z"
       transform="matrix(-2.828854,-2.828854,-2.828854,2.828854,42.70297,21.31542)" />
    <path
       sodipodi:type="arc"
       style="fill:#ffffff;fill-opacity:1;fill-rule:nonzero;stroke:none;stroke-width:0.44117647;stroke-linecap:round;stroke-linejoin:round;stroke-miterlimit:4;stroke-dasharray:none;stroke-dashoffset:0;stroke-opacity:1"
       id="path2309"
       sodipodi:cx="7.25"
       sodipodi:cy="3.25"
       sodipodi:rx="0.25"
       sodipodi:ry="0.25"
       d="M 7.5 3.25 A 0.25 0.25 0 1 1  7,3.25 A 0.25 0.25 0 1 1  7.5 3.25 z"
       transform="matrix(-2.828854,-2.828854,-2.828854,2.828854,42.70297,17.31542)" />
    <path
       sodipodi:type="arc"
       style="fill:#ffffff;fill-opacity:1;fill-rule:nonzero;stroke:none;stroke-width:0.44117647;stroke-linecap:round;stroke-linejoin:round;stroke-miterlimit:4;stroke-dasharray:none;stroke-dashoffset:0;stroke-opacity:1"
       id="path2317"
       sodipodi:cx="7.25"
       sodipodi:cy="3.25"
       sodipodi:rx="0.25"
       sodipodi:ry="0.25"
       d="M 7.5 3.25 A 0.25 0.25 0 1 1  7,3.25 A 0.25 0.25 0 1 1  7.5 3.25 z"
       transform="matrix(-2.828854,-2.828854,-2.828854,2.828854,36.70297,14.31542)" />
    <path
       sodipodi:type="arc"
       style="fill:#ffffff;fill-opacity:1;fill-rule:nonzero;stroke:none;stroke-width:0.44117647;stroke-linecap:round;stroke-linejoin:round;stroke-miterlimit:4;stroke-dasharray:none;stroke-dashoffset:0;stroke-opacity:1"
       id="path2319"
       sodipodi:cx="7.25"
       sodipodi:cy="3.25"
       sodipodi:rx="0.25"
       sodipodi:ry="0.25"
       d="M 7.5 3.25 A 0.25 0.25 0 1 1  7,3.25 A 0.25 0.25 0 1 1  7.5 3.25 z"
       transform="matrix(-2.828854,-2.828854,-2.828854,2.828854,39.70297,21.31542)" />
    <path
       sodipodi:type="arc"
       style="fill:#ffffff;fill-opacity:1;fill-rule:nonzero;stroke:none;stroke-width:0.44117647;stroke-linecap:round;stroke-linejoin:round;stroke-miterlimit:4;stroke-dasharray:none;stroke-dashoffset:0;stroke-opacity:1"
       id="path2321"
       sodipodi:cx="7.25"
       sodipodi:cy="3.25"
       sodipodi:rx="0.25"
       sodipodi:ry="0.25"
       d="M 7.5 3.25 A 0.25 0.25 0 1 1  7,3.25 A 0.25 0.25 0 1 1  7.5 3.25 z"
       transform="matrix(-2.828854,-2.828854,-2.828854,2.828854,39.70297,17.31542)" />
    <path
       sodipodi:type="arc"
       style="fill:#ffffff;fill-opacity:1;fill-rule:nonzero;stroke:none;stroke-width:0.44117647;stroke-linecap:round;stroke-linejoin:round;stroke-miterlimit:4;stroke-dasharray:none;stroke-dashoffset:0;stroke-opacity:1"
       id="path2325"
       sodipodi:cx="7.25"
       sodipodi:cy="3.25"
       sodipodi:rx="0.25"
       sodipodi:ry="0.25"
       d="M 7.5 3.25 A 0.25 0.25 0 1 1  7,3.25 A 0.25 0.25 0 1 1  7.5 3.25 z"
       transform="matrix(-2.828854,2.828854,2.828854,2.828854,21.31542,-16.70297)" />
    <path
       sodipodi:type="arc"
       style="fill:#ffffff;fill-opacity:1;fill-rule:nonzero;stroke:none;stroke-width:0.44117647;stroke-linecap:round;stroke-linejoin:round;stroke-miterlimit:4;stroke-dasharray:none;stroke-dashoffset:0;stroke-opacity:1"
       id="path2327"
       sodipodi:cx="7.25"
       sodipodi:cy="3.25"
       sodipodi:rx="0.25"
       sodipodi:ry="0.25"
       d="M 7.5 3.25 A 0.25 0.25 0 1 1  7,3.25 A 0.25 0.25 0 1 1  7.5 3.25 z"
       transform="matrix(-2.828854,2.828854,2.828854,2.828854,18.31542,-16.70297)" />
    <path
       style="fill:none;fill-opacity:1;fill-rule:nonzero;stroke:#000000;stroke-width:1;stroke-linecap:round;stroke-linejoin:round;marker-end:url(#Arrow2Mend);stroke-miterlimit:4;stroke-dasharray:none;stroke-opacity:1"
       d="M 1.175626,7.5797619 C 1.175626,7.5797619 1.175626,7.5797619 5.175626,7.5797619"
       id="path2304"
       sodipodi:nodetypes="cc" />
  </g>
</svg>
