<?xml version="1.0" encoding="UTF-8" standalone="no"?>
<!-- Created with Inkscape (http://www.inkscape.org/) -->
<svg
   xmlns:svg="http://www.w3.org/2000/svg"
   xmlns="http://www.w3.org/2000/svg"
   version="1.0"
   width="25"
   height="22"
   id="svg2">
  <defs
     id="defs4">
    <marker
       refX="0"
       refY="0"
       orient="auto"
       style="overflow:visible"
       id="TriangleOutM">
      <path
         d="M 5.77,0 L -2.88,5 L -2.88,-5 L 5.77,0 z "
         transform="scale(0.4,0.4)"
         style="fill-rule:evenodd;stroke:#000000;stroke-width:1pt;marker-start:none"
         id="path3249" />
    </marker>
    <marker
       refX="0"
       refY="0"
       orient="auto"
       style="overflow:visible"
       id="TriangleOutS">
      <path
         d="M 5.77,0 L -2.88,5 L -2.88,-5 L 5.77,0 z "
         transform="scale(0.2,0.2)"
         style="fill-rule:evenodd;stroke:#000000;stroke-width:1pt;marker-start:none"
         id="path3252" />
    </marker>
    <marker
       refX="0"
       refY="0"
       orient="auto"
       style="overflow:visible"
       id="DiamondM">
      <path
         d="M 0,-7.0710768 L -7.0710894,0 L 0,7.0710589 L 7.0710462,0 L 0,-7.0710768 z "
         transform="scale(0.4,0.4)"
         style="fill-rule:evenodd;stroke:#000000;stroke-width:1pt;marker-start:none"
         id="path3231" />
    </marker>
    <marker
       refX="0"
       refY="0"
       orient="auto"
       style="overflow:visible"
       id="DiamondS">
      <path
         d="M 0,-7.0710768 L -7.0710894,0 L 0,7.0710589 L 7.0710462,0 L 0,-7.0710768 z "
         transform="scale(0.2,0.2)"
         style="fill-rule:evenodd;stroke:#000000;stroke-width:1pt;marker-start:none"
         id="path3234" />
    </marker>
    <marker
       refX="0"
       refY="0"
       orient="auto"
       style="overflow:visible"
       id="Arrow2Mend">
      <path
         d="M 8.7185878,4.0337352 L -2.2072895,0.016013256 L 8.7185884,-4.0017078 C 6.97309,-1.6296469 6.9831476,1.6157441 8.7185878,4.0337352 z "
         transform="scale(-0.6,-0.6)"
         style="font-size:12px;fill-rule:evenodd;stroke-width:0.625;stroke-linejoin:round"
         id="path3175" />
    </marker>
    <marker
       refX="0"
       refY="0"
       orient="auto"
       style="overflow:visible"
       id="Arrow2Mstart">
      <path
         d="M 8.7185878,4.0337352 L -2.2072895,0.016013256 L 8.7185884,-4.0017078 C 6.97309,-1.6296469 6.9831476,1.6157441 8.7185878,4.0337352 z "
         transform="scale(0.6,0.6)"
         style="font-size:12px;fill-rule:evenodd;stroke-width:0.625;stroke-linejoin:round"
         id="path3172" />
    </marker>
    <marker
       refX="0"
       refY="0"
       orient="auto"
       style="overflow:visible"
       id="Arrow1Lend">
      <path
         d="M 0,0 L 5,-5 L -12.5,0 L 5,5 L 0,0 z "
         transform="matrix(-0.8,0,0,-0.8,-10,0)"
         style="fill-rule:evenodd;stroke:#000000;stroke-width:1pt;marker-start:none"
         id="path3151" />
    </marker>
  </defs>
  <g
     id="layer1">
    <path
       d="M 17.640725 16.512915 A 5.0511961 4.9486337 0 1 1  7.5383329,16.512915 A 5.0511961 4.9486337 0 1 1  17.640725 16.512915 z"
       transform="matrix(0.9898646,0,0,1.0103799,3.8071092e-2,-0.1843171)"
       style="opacity:1;fill:#ffffff;fill-opacity:0.39215686;fill-rule:nonzero;stroke:#646464;stroke-width:0.99993038;stroke-linecap:round;stroke-linejoin:round;stroke-miterlimit:4;stroke-dasharray:none;stroke-dashoffset:0;stroke-opacity:1"
       id="path2170" />
    <path
       d="M 0.5,16.5 L 6.5,16.5 L 3.5,14.5 L 3.5,18.5 L 6.5,16.5 L 0.5,16.5 z "
       style="fill:#646464;fill-opacity:1;fill-rule:evenodd;stroke:#646464;stroke-width:1px;stroke-linecap:square;stroke-linejoin:round;marker-start:none;marker-end:none;stroke-opacity:1"
       id="path3143" />
    <path
       d="M 17.5,16.5 L 24.5,16.5"
       style="fill:none;fill-opacity:0.75;fill-rule:evenodd;stroke:#646464;stroke-width:1px;stroke-linecap:square;stroke-linejoin:miter;stroke-opacity:1"
       id="path3359" />
    <path
       d="M 10.5,14.5 L 14.5,18.5"
       style="fill:none;fill-opacity:0.75;fill-rule:evenodd;stroke:#646464;stroke-width:1px;stroke-linecap:round;stroke-linejoin:miter;stroke-opacity:1"
       id="path3361" />
    <path
       d="M 10.5,18.5 L 14.5,14.5"
       style="fill:none;fill-opacity:0.75;fill-rule:evenodd;stroke:#646464;stroke-width:1px;stroke-linecap:round;stroke-linejoin:miter;stroke-opacity:1"
       id="path3363" />
    <path
       d="M 12.5,0.5 L 12.5,10.5 L 14.5,7.5 L 10.5,7.5 L 12.5,10.5 L 12.5,0.5 z "
       style="fill:#646464;fill-opacity:1;fill-rule:evenodd;stroke:#646464;stroke-width:1px;stroke-linecap:square;stroke-linejoin:round;marker-start:none;marker-end:none;stroke-opacity:1"
       id="path3394" />
  </g>
</svg>
