<?xml version="1.0" encoding="UTF-8" standalone="no"?>
<!-- Created with Inkscape (http://www.inkscape.org/) -->
<svg
   xmlns:svg="http://www.w3.org/2000/svg"
   xmlns="http://www.w3.org/2000/svg"
   version="1.0"
   width="68"
   height="16"
   id="svg2">
  <defs
     id="defs4" />
  <g
     id="layer1">
    <path
       d="M 0.49684206,6.5 L 0.499325,0.50238363 L 49.5,0.5 L 49.5,8.3398438"
       style="fill:none;fill-opacity:0.75;fill-rule:evenodd;stroke:#7f7f7f;stroke-width:1px;stroke-linecap:square;stroke-linejoin:miter;stroke-opacity:1"
       id="path2170" />
    <path
       d="M 43.5,10.5 L 46.5,10.5 L 52.5,7.5"
       style="fill:none;fill-opacity:0.75;fill-rule:evenodd;stroke:#7f7f7f;stroke-width:1px;stroke-linecap:square;stroke-linejoin:miter;stroke-opacity:1"
       id="path2172" />
    <path
       d="M 52,10.5 L 55.5,10.5 L 55.5,5.5 L 65.5,5.5 L 65.5,10.5 L 68,10.5 L 65.5,10.5 L 65.5,15.5 L 55.494021,15.49342 L 55.5,10.5 L 52,10.5 z "
       style="fill:#ffffff;fill-opacity:0.39215686;fill-rule:evenodd;stroke:#7f7f7f;stroke-width:1px;stroke-linecap:butt;stroke-linejoin:miter;stroke-opacity:1"
       id="path2174" />
    <path
       d="M 51.784588,15.409991 L 51.784588,7.7049955 L 52.693089,7.7049955 L 54.964343,11.557493 L 57.235597,7.7049955 L 58.144099,7.7049955 L 58.144099,15.409991 L 57.235597,15.409991 L 57.235597,9.9064228 L 55.418594,12.658207 L 54.510092,12.658207 L 52.693089,9.9064228 L 52.693089,15.409991"
       transform="scale(1.1007136,0.9085015)"
       style="font-size:10.90202045px;font-style:normal;font-variant:normal;font-weight:normal;font-stretch:normal;text-align:start;line-height:125%;writing-mode:lr-tb;text-anchor:start;fill:#7f7f7f;fill-opacity:1;stroke:none;stroke-width:1px;stroke-linecap:butt;stroke-linejoin:miter;stroke-opacity:1;font-family:Arial"
       id="text3147" />
  </g>
</svg>
