<?xml version="1.0" encoding="UTF-8" standalone="no"?>
<!-- Created with Inkscape (http://www.inkscape.org/) -->
<svg
   xmlns:dc="http://purl.org/dc/elements/1.1/"
   xmlns:cc="http://web.resource.org/cc/"
   xmlns:rdf="http://www.w3.org/1999/02/22-rdf-syntax-ns#"
   xmlns:svg="http://www.w3.org/2000/svg"
   xmlns="http://www.w3.org/2000/svg"
   xmlns:sodipodi="http://inkscape.sourceforge.net/DTD/sodipodi-0.dtd"
   xmlns:inkscape="http://www.inkscape.org/namespaces/inkscape"
   width="16px"
   height="16px"
   id="svg2"
   sodipodi:version="0.32"
   inkscape:version="0.43"
   sodipodi:docname="oscsinebank-id-106.svg"
   sodipodi:docbase="/home/sak/wip/nmedit/oscillator_set">
  <defs
     id="defs4" />
  <sodipodi:namedview
     id="base"
     pagecolor="#ffffff"
     bordercolor="#666666"
     borderopacity="1.0"
     inkscape:pageopacity="0.0"
     inkscape:pageshadow="2"
     inkscape:zoom="22.197802"
     inkscape:cx="8"
     inkscape:cy="8"
     inkscape:current-layer="layer1"
     showgrid="true"
     inkscape:grid-bbox="true"
     inkscape:document-units="px"
     inkscape:grid-points="true"
     gridspacingx="0.5px"
     gridspacingy="0.5px"
     gridtolerance="0.5px"
     inkscape:guide-points="true"
     guidetolerance="0.5px"
     inkscape:window-width="801"
     inkscape:window-height="579"
     inkscape:window-x="347"
     inkscape:window-y="317"
     inkscape:showpageshadow="false" />
  <metadata
     id="metadata7">
    <rdf:RDF>
      <cc:Work
         rdf:about="">
        <dc:format>image/svg+xml</dc:format>
        <dc:type
           rdf:resource="http://purl.org/dc/dcmitype/StillImage" />
      </cc:Work>
    </rdf:RDF>
  </metadata>
  <g
     id="layer1"
     inkscape:label="Layer 1"
     inkscape:groupmode="layer">
    <path
       sodipodi:type="arc"
       style="fill:#2cab73;fill-opacity:1;fill-rule:evenodd;stroke:#000000;stroke-width:1.09322917;stroke-miterlimit:4;stroke-dasharray:none;stroke-dashoffset:0;stroke-opacity:1"
       id="path4070"
       sodipodi:cx="8.2215347"
       sodipodi:cy="8.22896"
       sodipodi:rx="7.2304454"
       sodipodi:ry="7.2304454"
       d="M 15.45198 8.22896 A 7.2304454 7.2304454 0 1 1  0.99108934,8.22896 A 7.2304454 7.2304454 0 1 1  15.45198 8.22896 z"
       transform="matrix(1.029081,0,0,1.029042,-0.457411,-0.470878)" />
    <path
       style="fill:none;fill-opacity:0.75;fill-rule:evenodd;stroke:#000000;stroke-width:0.9375;stroke-linecap:round;stroke-linejoin:round;stroke-miterlimit:4;stroke-dasharray:none;stroke-opacity:1"
       d="M 3.378808,6.0567304 C 3.3616079,6.0495368 5.3339362,0.74995302 7.7890545,4.0520729 C 9.8088335,6.7686633 10.920153,6.8070133 12.5,3.7513743"
       id="path1320"
       sodipodi:nodetypes="csc" />
    <path
       sodipodi:type="arc"
       style="fill:#ffffff;fill-opacity:1;fill-rule:nonzero;stroke:none;stroke-width:0.83333331;stroke-linecap:round;stroke-linejoin:round;stroke-miterlimit:4;stroke-dasharray:none;stroke-opacity:1"
       id="path3150"
       sodipodi:cx="7"
       sodipodi:cy="5.5"
       sodipodi:rx="2"
       sodipodi:ry="2"
       d="M 9 5.5 A 2 2 0 1 1  5,5.5 A 2 2 0 1 1  9 5.5 z"
       transform="matrix(-0.5,0,0,-0.5,15.5,13.75)" />
    <path
       sodipodi:type="arc"
       style="fill:#ffffff;fill-opacity:1;fill-rule:nonzero;stroke:none;stroke-width:0.83333331;stroke-linecap:round;stroke-linejoin:round;stroke-miterlimit:4;stroke-dasharray:none;stroke-opacity:1"
       id="path2484"
       sodipodi:cx="7"
       sodipodi:cy="5.5"
       sodipodi:rx="2"
       sodipodi:ry="2"
       d="M 9 5.5 A 2 2 0 1 1  5,5.5 A 2 2 0 1 1  9 5.5 z"
       transform="matrix(-0.5,0,0,-0.5,11.5,13.75)" />
    <path
       sodipodi:type="arc"
       style="fill:#ffffff;fill-opacity:1;fill-rule:nonzero;stroke:none;stroke-width:0.83333331;stroke-linecap:round;stroke-linejoin:round;stroke-miterlimit:4;stroke-dasharray:none;stroke-opacity:1"
       id="path2486"
       sodipodi:cx="7"
       sodipodi:cy="5.5"
       sodipodi:rx="2"
       sodipodi:ry="2"
       d="M 9 5.5 A 2 2 0 1 1  5,5.5 A 2 2 0 1 1  9 5.5 z"
       transform="matrix(-0.5,0,0,-0.5,7.5,13.75)" />
    <path
       sodipodi:type="arc"
       style="fill:#ffffff;fill-opacity:1;fill-rule:nonzero;stroke:none;stroke-width:0.83333331;stroke-linecap:round;stroke-linejoin:round;stroke-miterlimit:4;stroke-dasharray:none;stroke-opacity:1"
       id="path2488"
       sodipodi:cx="7"
       sodipodi:cy="5.5"
       sodipodi:rx="2"
       sodipodi:ry="2"
       d="M 9 5.5 A 2 2 0 1 1  5,5.5 A 2 2 0 1 1  9 5.5 z"
       transform="matrix(-0.5,0,0,-0.5,15.5,10.75)" />
    <path
       sodipodi:type="arc"
       style="fill:#ffffff;fill-opacity:1;fill-rule:nonzero;stroke:none;stroke-width:0.83333331;stroke-linecap:round;stroke-linejoin:round;stroke-miterlimit:4;stroke-dasharray:none;stroke-opacity:1"
       id="path2490"
       sodipodi:cx="7"
       sodipodi:cy="5.5"
       sodipodi:rx="2"
       sodipodi:ry="2"
       d="M 9 5.5 A 2 2 0 1 1  5,5.5 A 2 2 0 1 1  9 5.5 z"
       transform="matrix(-0.5,0,0,-0.5,11.5,10.75)" />
    <path
       sodipodi:type="arc"
       style="fill:#ffffff;fill-opacity:1;fill-rule:nonzero;stroke:none;stroke-width:0.83333331;stroke-linecap:round;stroke-linejoin:round;stroke-miterlimit:4;stroke-dasharray:none;stroke-opacity:1"
       id="path2492"
       sodipodi:cx="7"
       sodipodi:cy="5.5"
       sodipodi:rx="2"
       sodipodi:ry="2"
       d="M 9 5.5 A 2 2 0 1 1  5,5.5 A 2 2 0 1 1  9 5.5 z"
       transform="matrix(-0.5,0,0,-0.5,7.5,10.75)" />
  </g>
</svg>
